<?xml version="1.0" encoding="utf-8"?>
<!-- Generator: Adobe Illustrator 16.0.0, SVG Export Plug-In . SVG Version: 6.00 Build 0)  -->
<!DOCTYPE svg PUBLIC "-//W3C//DTD SVG 1.1//EN" "http://www.w3.org/Graphics/SVG/1.1/DTD/svg11.dtd">
<svg version="1.1" id="Layer_1" xmlns="http://www.w3.org/2000/svg" xmlns:xlink="http://www.w3.org/1999/xlink" x="0px" y="0px"
	 width="24px" height="24px" viewBox="0 0 24 24" enable-background="new 0 0 24 24" xml:space="preserve">
<g>
	<path d="M8.2,8.792c0.684,1.999,1.97,3.518,3.801,3.518c1.764,0,3.069-1.497,3.775-3.493c1.424-1.436,1.088-2.51,0.759-3.023
		C17.309,2.089,14.944,0,11.867,0C6.349,0,7.313,6.045,7.313,6.045c0.006,0,0.012,0.001,0.018,0.001
		C7.078,6.616,7.004,7.572,8.2,8.792z M10.504,4.305l-0.403,1.5c1.971-0.601,2.234-0.93,2.544-1.155
		c0.322-0.235,0.593-0.472,0.815-0.688c0.101,0.182,0.229,0.349,0.376,0.502s0.362-1.39,0.362-1.39s0.544,0.937,0.619,1.239
		c0.054,0.215,0.398,1.084,0.583,1.163c-0.07,2.869-1.357,5.868-3.401,5.868c-1.903,0-3.15-2.601-3.369-5.275
		C9.154,6.037,10.504,4.305,10.504,4.305z"/>
	<path d="M21.924,16.987c-1.126-3.075-3.789-4.343-3.824-4.359L15.836,11.8l-0.45-0.63l-0.347,0.763
		c-0.007,0.016-0.749,1.631-2.062,2.918l-0.145,0.142v7.362c-0.275,0.019-0.553,0.032-0.833,0.032s-0.558-0.013-0.833-0.032v-7.362
		l-0.145-0.142c-1.312-1.287-2.054-2.902-2.061-2.918l-0.346-0.765l-0.446,0.625l-2.233,0.821L5.9,12.628
		c-0.036,0.016-2.698,1.284-3.824,4.359c-0.229,0.625-0.394,1.324-0.46,2.102c0.97,1.18,2.137,2.191,3.451,2.985
		c0.069-0.001,0.137-0.002,0.208-0.005c0.227,0.197,0.49,0.378,0.783,0.545c0.515,0.294,1.126,0.542,1.815,0.736
		C9.174,23.771,10.56,24,12,24c1.649,0,3.229-0.299,4.689-0.843c0.421-0.143,0.818-0.31,1.178-0.504
		c0.322-0.173,0.617-0.366,0.869-0.583c0.067,0.002,0.132,0.003,0.197,0.004c1.314-0.793,2.481-1.805,3.451-2.985
		C22.317,18.311,22.153,17.612,21.924,16.987z M15.543,13.054l1.382,1.935l-2.642-0.125C14.845,14.199,15.268,13.535,15.543,13.054z
		 M13.8,15.809l1.077,0.051v6.173c-0.353,0.088-0.712,0.163-1.077,0.218V15.809z M10.2,22.251c-0.365-0.056-0.724-0.13-1.077-0.218
		V15.86l1.077-0.051V22.251z M8.457,13.054c0.275,0.481,0.698,1.146,1.26,1.81l-2.642,0.125L8.457,13.054z"/>
</g>
</svg>
